<?xml version="1.0" standalone="yes"?>

<svg version="1.1" viewBox="0.0 0.0 954.0 249.0" fill="none" stroke="none" stroke-linecap="square" stroke-miterlimit="10" xmlns="http://www.w3.org/2000/svg" xmlns:xlink="http://www.w3.org/1999/xlink"><clipPath id="p.0"><path d="m0 0l954.0 0l0 249.0l-954.0 0l0 -249.0z" clip-rule="nonzero"></path></clipPath><g clip-path="url(#p.0)"><path fill="#000000" fill-opacity="0.0" d="m0 0l954.6982 0l0 249.05249l-954.6982 0z" fill-rule="nonzero"></path><path fill="#e00000" d="m34.795277 65.52806l0 0c0 -14.788769 11.988667 -26.777435 26.77744 -26.777435l107.106544 0l0 0c7.1018066 0 13.9127655 2.821186 18.93451 7.84293c5.021744 5.021744 7.842926 11.832691 7.842926 18.934505l0 113.9097c0 14.788757 -11.988663 26.777435 -26.777435 26.777435l-107.106544 0c-14.788773 0 -26.77744 -11.988678 -26.77744 -26.777435z" fill-rule="nonzero"></path><path fill="#909090" d="m221.4147 64.60419l0 0c0 -14.28141 11.577362 -25.85878 25.85878 -25.85878l103.43202 0l0 0c6.858185 0 13.435486 2.7243996 18.284943 7.57386c4.849457 4.8494644 7.5738525 11.426746 7.5738525 18.28492l0 115.746994c0 14.281418 -11.577362 25.858795 -25.858795 25.858795l-103.43202 0c-14.281418 0 -25.85878 -11.577377 -25.85878 -25.858795z" fill-rule="nonzero"></path><path fill="#909090" d="m402.52625 64.60944l0 0c0 -14.281418 11.577362 -25.858788 25.858795 -25.858788l103.43204 0l0 0c6.8581543 0 13.435425 2.7243996 18.284912 7.57386c4.8494873 4.8494644 7.5738525 11.426746 7.5738525 18.284927l0 115.74699c0 14.281418 -11.577332 25.858795 -25.858765 25.858795l-103.43204 0c-14.281433 0 -25.858795 -11.577377 -25.858795 -25.858795z" fill-rule="nonzero"></path><path fill="#909090" d="m583.6378 64.60416l0 0c0 -14.281414 11.577332 -25.858788 25.858765 -25.858788l103.43201 0l0 0c6.8582153 0 13.435486 2.7243996 18.284973 7.573864c4.8494263 4.8494606 7.5738525 11.426743 7.5738525 18.284924l0 115.746994c0 14.281418 -11.577393 25.85878 -25.858826 25.85878l-103.43201 0c-14.281433 0 -25.858765 -11.577362 -25.858765 -25.85878z" fill-rule="nonzero"></path><path fill="#e00000" d="m764.7533 64.60415l0 0c0 -14.281414 11.577332 -25.858788 25.858765 -25.858788l103.43207 0l0 0c6.8581543 0 13.435425 2.7243996 18.284912 7.573864c4.8494263 4.8494606 7.5738525 11.426746 7.5738525 18.284924l0 115.747c0 14.281403 -11.577393 25.85878 -25.858765 25.85878l-103.43207 0c-14.281433 0 -25.858765 -11.577377 -25.858765 -25.85878z" fill-rule="nonzero"></path><path fill="#000000" fill-opacity="0.0" d="m75.0 45.1063l53.984253 0l0 70.362206l-53.984253 0z" fill-rule="nonzero"></path><path fill="#f5f7fa" d="m142.9375 102.381294q0 11.59375 -7.921875 17.84375q-7.90625 6.234375 -22.640625 6.234375l-8.984375 0l0 30.046867l-8.890625 0l0 -76.39062l19.796875 0q28.640625 0 28.640625 22.265625zm-39.546875 16.453125l7.984375 0q11.8125 0 17.078125 -3.8125q5.28125 -3.8125 5.28125 -12.21875q0 -7.578125 -4.96875 -11.28125q-4.953125 -3.71875 -15.453125 -3.71875l-9.921875 0l0 31.03125z" fill-rule="nonzero"></path><path fill="#000000" fill-opacity="0.0" d="m253.84776 45.1063l41.448837 0l0 34.708664l-41.448837 0z" fill-rule="nonzero"></path><path fill="#f5f7fa" d="m262.69153 156.50629l29.421875 -76.59374l10.90625 0l31.359375 76.59374l-11.546875 0l-8.9375 -23.203125l-32.03125 0l-8.40625 23.203125l-10.765625 0zm22.09375 -31.453117l25.96875 0l-7.984375 -21.21875q-3.65625 -9.65625 -5.4375 -15.875q-1.46875 7.359375 -4.125 14.625l-8.421875 22.46875z" fill-rule="nonzero"></path><path fill="#000000" fill-opacity="0.0" d="m434.11942 45.1063l101.700775 0l0 96.37795l-101.700775 0z" fill-rule="nonzero"></path><path fill="#f5f7fa" d="m451.27567 156.50629l0 -76.59374l10.390625 0l40.234375 60.140617l0 -60.140617l9.71875 0l0 76.59374l-10.40625 0l-40.21875 -60.187492l0 60.187492l-9.71875 0z" fill-rule="nonzero"></path><path fill="#000000" fill-opacity="0.0" d="m618.7047 45.1063l97.7323 0l0 102.173225l-97.7323 0z" fill-rule="nonzero"></path><path fill="#f5f7fa" d="m657.53284 156.50629l0 -32.437492l-29.515625 -44.15625l12.328125 0l15.109375 23.09375q4.171875 6.484375 7.78125 12.953125q3.4375 -6.0 8.359375 -13.53125l14.828125 -22.515625l11.8125 0l-30.5625 44.15625l0 32.437492l-10.140625 0z" fill-rule="nonzero"></path><path fill="#000000" fill-opacity="0.0" d="m794.78217 48.003937l72.28345 0l0 96.37796l-72.28345 0z" fill-rule="nonzero"></path><path fill="#f5f7fa" d="m866.6884 132.54456l10.140625 2.5625q-3.1875 12.484375 -11.46875 19.046875q-8.28125 6.5625 -20.25 6.5625q-12.390625 0 -20.15625 -5.046875q-7.75 -5.046875 -11.796875 -14.609375q-4.046875 -9.5625 -4.046875 -20.53125q0 -11.953125 4.5625 -20.859375q4.578125 -8.921875 13.015625 -13.546875q8.4375 -4.625 18.578125 -4.625q11.5 0 19.328125 5.859375q7.84375 5.84375 10.921875 16.453125l-9.984375 2.359375q-2.65625 -8.359375 -7.734375 -12.171875q-5.0625 -3.8125 -12.734375 -3.8125q-8.84375 0 -14.78125 4.234375q-5.921875 4.21875 -8.328125 11.359375q-2.390625 7.125 -2.390625 14.703125q0 9.765625 2.84375 17.0625q2.84375 7.28125 8.84375 10.890625q6.015625 3.609375 13.015625 3.609375q8.515625 0 14.421875 -4.90625q5.90625 -4.921875 8.0 -14.59375z" fill-rule="nonzero"></path></g></svg>

